<svg id="Capa_1" enable-background="new 0 0 512 512" height="512" viewBox="0 0 512 512" width="512" xmlns="http://www.w3.org/2000/svg"><g><g><path d="m437.804 69.738h-62.677c-5.522 0-10 4.478-10 10s4.478 10 10 10h62.677c7.121 0 12.914 5.771 12.914 12.862v102.065c0 7.093-5.793 12.863-12.914 12.863h-208.54c-5.522 0-10 4.478-10 10v53.611h-28.361c-5.522 0-10 4.478-10 10v189.276c0 17.415 14.168 31.583 31.583 31.583h33.557c17.415 0 31.584-14.168 31.584-31.583v-189.274c0-5.522-4.478-10-10-10h-28.362v-43.611h198.54c18.148 0 32.914-14.742 32.914-32.863v-102.066c-.001-18.121-14.767-32.863-32.915-32.863zm-180.178 410.679c0 6.387-5.196 11.583-11.584 11.583h-33.557c-6.387 0-11.583-5.196-11.583-11.583v-179.276h56.724z" fill="#020288"/></g><g><path d="m387.542 159.476h-316.556c-16.405 0-29.704-13.299-29.704-29.704v-100.068c0-16.405 13.299-29.704 29.704-29.704h316.556c16.405 0 29.704 13.299 29.704 29.704v100.069c0 16.404-13.299 29.703-29.704 29.703z" fill="#ffbdbc"/></g></g></svg>