<svg id="Capa_1" enable-background="new 0 0 512 512" height="512" viewBox="0 0 512 512" width="512" xmlns="http://www.w3.org/2000/svg"><g><g><path d="m170.186 236.554 85.814 114.021 85.815-114.021h-47.784v-86.02h-76.062v86.02z" fill="#e2c4ff"/></g><g fill="#020288"><path d="m376.321 0h-240.642c-26.624 0-48.284 21.579-48.284 48.102v415.705c0 26.574 21.619 48.193 48.193 48.193h240.824c26.574 0 48.193-21.619 48.193-48.193v-415.705c0-26.523-21.66-48.102-48.284-48.102zm-268.926 48.102c0-15.496 12.688-28.102 28.284-28.102h240.643c15.596 0 28.284 12.606 28.284 28.102v364.066h-297.211zm297.21 415.705c0 15.545-12.647 28.193-28.193 28.193h-240.824c-15.546 0-28.193-12.647-28.193-28.193v-31.639h297.211v31.639z"/><path d="m249.333 472.084h13.334c5.523 0 10-4.477 10-10s-4.477-10-10-10h-13.334c-5.522 0-10 4.477-10 10s4.478 10 10 10z"/><path d="m303.489 39.553h-94.979c-5.522 0-10 4.477-10 10s4.478 10 10 10h94.979c5.522 0 10-4.477 10-10s-4.477-10-10-10z"/></g></g></svg>