<svg id="Capa_1" enable-background="new 0 0 512 512" height="512" viewBox="0 0 512 512" width="512" xmlns="http://www.w3.org/2000/svg"><g><g><path d="m325.462 307.102c-14.189 0-27.598 3.341-39.483 9.278-19.942-19.459-47.205-31.449-77.269-31.449-61.108 0-110.646 49.538-110.646 110.646h315.872c0-48.863-39.611-88.475-88.474-88.475z" fill="#a4fcc4"/></g><g fill="#020288"><path d="m486.019 94.893h-139.07l-84.33-74.477c-3.781-3.339-9.458-3.339-13.239 0l-84.331 74.477h-139.068c-14.326 0-25.981 11.655-25.981 25.981v347.232c0 14.326 11.655 25.981 25.981 25.981h460.038c14.326 0 25.981-11.655 25.981-25.981v-347.232c0-14.326-11.655-25.981-25.981-25.981zm-466.019 34.196 26.998 27.082v277.814l-26.998 27.083zm457.912-14.196-27.061 27.146h-389.702l-27.061-27.146zm-32.91 47.146v264.902h-378.004v-264.902zm-382.68 284.902h387.355l27.061 27.146h-441.477zm402.68-12.956v-277.813l26.998-27.083v331.979zm-209.002-392.732 60.737 53.64h-121.474z"/><path d="m325.462 272.04c23.326 0 42.304-18.978 42.304-42.304 0-23.327-18.978-42.304-42.304-42.304s-42.304 18.978-42.304 42.304 18.978 42.304 42.304 42.304zm0-64.608c12.298 0 22.304 10.006 22.304 22.304s-10.006 22.304-22.304 22.304-22.304-10.005-22.304-22.304 10.006-22.304 22.304-22.304z"/></g></g></svg>