<svg id="Capa_1" enable-background="new 0 0 511.996 511.996" height="512" viewBox="0 0 511.996 511.996" width="512" xmlns="http://www.w3.org/2000/svg"><g><g><g><path d="m94.39 124.557h323.216v262.881h-323.216z" fill="#a4fcc4" transform="matrix(0 1 -1 0 511.996 0)"/></g></g><g><path d="m500.988 210.62-54.503-54.512v-79.78c0-21.726-17.675-39.4-39.401-39.4h-79.76l-25.947-25.951c-7.077-7.079-16.488-10.977-26.497-10.977s-19.419 3.898-26.497 10.976l-25.947 25.951h-117.524c-21.726 0-39.401 17.675-39.401 39.4v117.613c-.237.197-.467.406-.689.628l-53.814 53.823c-14.605 14.608-14.605 38.376 0 52.984l54.503 54.512v79.78c0 21.726 17.675 39.4 39.401 39.4h79.76l25.947 25.951c7.077 7.079 16.487 10.977 26.497 10.977 10.009 0 19.419-3.898 26.497-10.977l25.947-25.951h117.525c21.726 0 39.401-17.675 39.401-39.4v-117.635c.282-.227.555-.47.817-.732l53.687-53.695c14.603-14.608 14.603-38.377-.002-52.985zm-238.461-185.503c3.299-3.3 7.686-5.117 12.353-5.117s9.054 1.817 12.353 5.117l11.808 11.81h-48.323zm-237.376 262.117c-6.809-6.811-6.809-17.893 0-24.703l40.36-40.366v105.435zm224.318 199.644c-3.299 3.3-7.687 5.118-12.353 5.118s-9.054-1.818-12.353-5.118l-11.808-11.81h48.322zm177.016-51.21c0 10.697-8.703 19.4-19.401 19.4h-302.172c-10.698 0-19.401-8.703-19.401-19.4v-359.34c0-10.697 8.703-19.4 19.401-19.4h302.172c10.698 0 19.401 8.703 19.401 19.4zm60.359-186.204-40.36 40.367v-105.436l40.36 40.366c6.81 6.81 6.81 17.892 0 24.703z" fill="#020288"/><g><g><path d="m255.998 353.114c-53.55 0-97.116-43.566-97.116-97.117 0-53.55 43.566-97.116 97.116-97.116s97.117 43.566 97.117 97.116c0 53.551-43.567 97.117-97.117 97.117zm0-174.233c-42.522 0-77.116 34.594-77.116 77.116s34.594 77.117 77.116 77.117 77.117-34.594 77.117-77.117c0-42.522-34.595-77.116-77.117-77.116z" fill="#020288"/></g><g><g><path d="m227.658 259.306c-5.523 0-10-4.477-10-10v-13.021c0-5.523 4.477-10 10-10s10 4.477 10 10v13.021c0 5.523-4.478 10-10 10z" fill="#020288"/></g><g><path d="m284.339 259.306c-5.523 0-10-4.477-10-10v-13.021c0-5.523 4.477-10 10-10s10 4.477 10 10v13.021c0 5.523-4.477 10-10 10z" fill="#020288"/></g></g><g><path d="m255.998 301.508c-7.792 0-15.582-2.965-21.514-8.897-3.905-3.905-3.905-10.237 0-14.143 3.905-3.905 10.237-3.905 14.143 0 4.064 4.065 10.68 4.065 14.744 0 3.905-3.904 10.238-3.905 14.142 0 3.905 3.905 3.905 10.237 0 14.142-5.932 5.931-13.725 8.898-21.515 8.898z" fill="#020288"/></g></g></g></g></svg>