<svg id="Capa_1" enable-background="new 0 0 511.979 511.979" height="512" viewBox="0 0 511.979 511.979" width="512" xmlns="http://www.w3.org/2000/svg"><g><g fill="#020288"><path d="m173.756 324.08-41.284 41.284-18.488-18.488c-3.906-3.904-10.236-3.904-14.143 0l-86.348 86.348c-17.992 17.992-17.992 47.269 0 65.261 8.996 8.996 20.814 13.494 32.63 13.494 11.817 0 23.635-4.498 32.631-13.494l86.348-86.348c3.905-3.905 3.905-10.237 0-14.143l-18.488-18.488 41.284-41.284c3.905-3.905 3.905-10.237 0-14.143-3.906-3.903-10.236-3.903-14.142.001zm-109.144 160.262c-10.193 10.194-26.782 10.196-36.976 0-10.194-10.194-10.194-26.781 0-36.976l79.276-79.276 36.976 36.976z"/><path d="m414.26 198.355c-1.911-2.845-47.483-69.66-106.213-69.66s-104.302 66.816-106.213 69.66c-2.267 3.373-2.267 7.781 0 11.154 1.911 2.845 47.483 69.659 106.213 69.659s104.302-66.815 106.213-69.659c2.266-3.373 2.266-7.781 0-11.154zm-106.213 60.813c-39.252 0-73.92-40.204-85.508-55.236 11.593-15.038 46.259-55.237 85.508-55.237 39.255 0 73.927 40.213 85.515 55.246-11.561 15.039-46.143 55.227-85.515 55.227z"/><path d="m308.047 163.591c-22.243 0-40.34 18.097-40.34 40.341 0 22.243 18.097 40.34 40.34 40.34 22.244 0 40.341-18.097 40.341-40.34 0-22.244-18.097-40.341-40.341-40.341zm0 60.681c-11.216 0-20.34-9.124-20.34-20.34s9.124-20.341 20.34-20.341 20.341 9.125 20.341 20.341-9.125 20.34-20.341 20.34z"/></g><g><path d="m452.248 59.73c-79.64-79.64-208.762-79.64-288.403 0-79.64 79.64-79.64 208.762 0 288.403s208.762 79.64 288.403 0 79.641-208.763 0-288.403zm-42.453 245.949c-56.194 56.194-147.302 56.194-203.495 0-56.194-56.194-56.194-147.302 0-203.495 56.194-56.194 147.302-56.194 203.495 0 56.193 56.193 56.193 147.302 0 203.495z" fill="#e2c4ff"/></g></g></svg>